<svg id="eaCJksTuXgr1" xmlns="http://www.w3.org/2000/svg" xmlns:xlink="http://www.w3.org/1999/xlink" viewBox="0 0 300 300" shape-rendering="geometricPrecision" text-rendering="geometricPrecision"><ellipse rx="45" ry="45" transform="matrix(2 0 0 2 150 150)" stroke-width="0"/><rect width="20.00244" height="5" rx="0" ry="0" transform="matrix(1.414214 1.414214-1.414214 1.414214 60.180397 61.593515)" stroke-width="0"/><rect width="20.00244" height="5" rx="0" ry="0" transform="matrix(1.414214 1.414214-1.414214 1.414214 215.071068 204.464466)" stroke-width="0"/><rect width="20.00244" height="5" rx="0" ry="0" transform="matrix(-1.414214 1.414214-1.414214-1.414214 243.35879 65.129049)" stroke-width="0"/><rect width="20.00244" height="5" rx="0" ry="0" transform="matrix(-1.414214 1.414214-1.414214-1.414214 95.539187 211.535534)" stroke-width="0"/><rect width="37.5" height="5" rx="0" ry="0" transform="matrix(-2 0 0-2 290 155)" stroke-width="0"/><rect width="37.5" height="5" rx="0" ry="0" transform="matrix(0 2-2 0 155 10)" stroke-width="0"/><rect width="37.5" height="5" rx="0" ry="0" transform="matrix(0 2-2 0 156.656291 215)" stroke-width="0"/><rect width="37.5" height="5" rx="0" ry="0" transform="matrix(-2 0 0-2 85 155)" stroke-width="0"/><ellipse rx="5.947937" ry="5.947937" transform="matrix(3.96 0 0 3.959999 115.557484 116.389204)" fill="#fff" stroke-width="0"/><ellipse rx="7.248054" ry="7.248054" transform="translate(92.003653 155)" fill="#fff" stroke-width="0"/></svg>
