<svg id="eORNodHu7k01" xmlns="http://www.w3.org/2000/svg" xmlns:xlink="http://www.w3.org/1999/xlink" viewBox="0 0 300 300" shape-rendering="geometricPrecision" text-rendering="geometricPrecision"><path d="M50,150C50,94.77153,94.77153,50,150,50v25c-41.42136,0-75,33.57864-75,75s33.57864,75,75,75s75-33.57864,75-75c0-26.6682-13.9188-50.08548-34.88812-63.38358l13.6068-20.97762C231.54606,83.39539,250,114.54262,250,150c0,55.22847-44.77153,100-100,100s-100-44.77153-100-100ZM186.15543,56.73606c0,0,0,0,0,0v27.5382-27.5382Z" stroke-width="0"/><polygon points="0,-30 25.980762,15 -25.980762,15 0,-30" transform="matrix(0 1-1 0 157.305719 63.084125)" stroke-width="0"/></svg>
