<svg id="enPsMgSR5qO1" xmlns="http://www.w3.org/2000/svg" xmlns:xlink="http://www.w3.org/1999/xlink" viewBox="0 0 300 300" shape-rendering="geometricPrecision" text-rendering="geometricPrecision"><path d="M50,150C50,94.77153,94.77153,50,150,50s100,44.77153,100,100-44.77153,100-100,100-100-44.77153-100-100Zm100,50c27.61424,0,50-22.38576,50-50s-22.38576-50-50-50-50,22.38576-50,50s22.38576,50,50,50Z" fill="#47484a" stroke-width="0"/><rect width="44.433095" height="73.544433" rx="0" ry="0" transform="matrix(1.713087 0 0 1 111.941121-.329134)" fill="#47484a" stroke-width="0"/><rect width="44.433095" height="73.544433" rx="0" ry="0" transform="matrix(1.713087 0 0 1 111.941121 226.455567)" fill="#47484a" stroke-width="0"/><rect width="44.433095" height="73.544433" rx="0" ry="0" transform="matrix(-1.030961 1.368132-.798636-.601815 111.941121 58.573155)" fill="#47484a" stroke-width="0"/><rect width="44.433095" height="73.544433" rx="0" ry="0" transform="matrix(-1.217668 1.20497-.703391-.710803 293.894112 57.940688)" fill="#47484a" stroke-width="0"/><rect width="44.433095" height="73.544433" rx="0" ry="0" transform="matrix(-1.364423 1.035866-.604678-.79647 112.493325 240.092814)" fill="#47484a" stroke-width="0"/><rect width="44.433095" height="73.544433" rx="0" ry="0" transform="matrix(-1.09962-1.313584 0.766794-.641894 232.35478 292.879974)" fill="#47484a" stroke-width="0"/><rect width="44.433095" height="73.544433" rx="0" ry="0" transform="matrix(0 1.713087-1 0 73.92989 113.062817)" fill="#47484a" stroke-width="0"/><rect width="44.433095" height="73.544433" rx="0" ry="0" transform="matrix(0 1.713087-1 0 300 111.941121)" fill="#47484a" stroke-width="0"/></svg>
