<svg id="eZuxkSUd9gb1" xmlns="http://www.w3.org/2000/svg" xmlns:xlink="http://www.w3.org/1999/xlink" viewBox="0 0 300 300" shape-rendering="geometricPrecision" text-rendering="geometricPrecision"><path d="M50,150C50,94.77153,94.77153,50,150,50s100,44.77153,100,100-44.77153,100-100,100-100-44.77153-100-100Zm100,50c27.61424,0,50-22.38576,50-50s-22.38576-50-50-50-50,22.38576-50,50s22.38576,50,50,50Z" fill="#47484a" stroke-width="0"/><rect width="44.433095" height="73.544433" rx="0" ry="0" transform="matrix(1.713087 0 0 1 111.941121 0)" fill="#47484a" stroke-width="0"/><rect width="44.433095" height="73.544433" rx="0" ry="0" transform="matrix(1.713087 0 0 1 111.941121 226.455567)" fill="#47484a" stroke-width="0"/><rect width="44.433095" height="73.544433" rx="0" ry="0" transform="matrix(-1.030961 1.368132-.798636-.601815 105.477929 73.530089)" fill="#47484a" stroke-width="0"/><rect width="44.433095" height="73.544433" rx="0" ry="0" transform="matrix(-1.030961 1.368132-.798636-.601815 290.98866 211.237299)" fill="#47484a" stroke-width="0"/><rect width="44.433095" height="73.544433" rx="0" ry="0" transform="matrix(-1.364423 1.035866-.604678-.79647 105.754031 219.502398)" fill="#47484a" stroke-width="0"/><rect width="44.433095" height="73.544433" rx="0" ry="0" transform="matrix(-1.364423 1.035866-.604678-.79647 299.34218 94.344416)" fill="#47484a" stroke-width="0"/></svg>
